<?xml version="1.0" encoding="utf-8"?>
<!-- Generator: Adobe Illustrator 24.0.2, SVG Export Plug-In . SVG Version: 6.00 Build 0)  -->
<svg version="1.1" id="Layer_1" xmlns="http://www.w3.org/2000/svg" xmlns:xlink="http://www.w3.org/1999/xlink" x="0px" y="0px"
	 viewBox="0 0 512 512" style="enable-background:new 0 0 512 512;" xml:space="preserve">
<style type="text/css">
	.st0{fill:#ED4F44;}
</style>
<g>
	<g>
		<g>
			<path class="st0" d="M340.7,111.5c-6.5,6.5-6.5,17,0,23.5c6.5,6.5,17,6.5,23.5,0c6.5-6.5,6.5-17,0-23.5
				C357.7,105,347.1,105,340.7,111.5z"/>
			<path class="st0" d="M384.8,155.6c-6.5,6.5-6.5,17,0,23.5c6.5,6.5,17,6.5,23.5,0c6.5-6.5,6.5-17,0-23.5
				C401.8,149.2,391.3,149.2,384.8,155.6z"/>
			<path class="st0" d="M429,199.8c-6.5,6.5-6.5,17,0,23.5c6.5,6.5,17,6.5,23.5,0c6.5-6.5,6.5-17,0-23.5
				C446,193.3,435.5,193.3,429,199.8z"/>
			<path class="st0" d="M473.1,244c-6.5,6.5-6.5,17,0,23.5c6.5,6.5,17,6.5,23.5,0c6.5-6.5,6.5-17,0-23.5
				C490.1,237.5,479.6,237.5,473.1,244z"/>
		</g>
		<g>
			<path class="st0" d="M340.7,399.9c-6.5-6.5-6.5-17,0-23.5c6.5-6.5,17-6.5,23.5,0c6.5,6.5,6.5,17,0,23.5
				C357.7,406.4,347.1,406.4,340.7,399.9z"/>
			<path class="st0" d="M384.8,355.7c-6.5-6.5-6.5-17,0-23.5c6.5-6.5,17-6.5,23.5,0c6.5,6.5,6.5,17,0,23.5
				C401.8,362.2,391.3,362.2,384.8,355.7z"/>
			<path class="st0" d="M429,311.6c-6.5-6.5-6.5-17,0-23.5c6.5-6.5,17-6.5,23.5,0c6.5,6.5,6.5,17,0,23.5
				C446,318.1,435.5,318.1,429,311.6z"/>
			<path class="st0" d="M473.1,267.4c-6.5-6.5-6.5-17,0-23.5c6.5-6.5,17-6.5,23.5,0c6.5,6.5,6.5,17,0,23.5
				C490.1,273.9,479.6,273.9,473.1,267.4z"/>
		</g>
	</g>
	<g>
		<path class="st0" d="M197,255.7c0,9.2,7.4,16.6,16.6,16.6c9.2,0,16.6-7.4,16.6-16.6c0-9.2-7.4-16.6-16.6-16.6
			C204.4,239.1,197,246.5,197,255.7z"/>
		<path class="st0" d="M259.5,255.7c0,9.2,7.4,16.6,16.6,16.6c9.2,0,16.6-7.4,16.6-16.6c0-9.2-7.4-16.6-16.6-16.6
			C266.9,239.1,259.5,246.5,259.5,255.7z"/>
		<path class="st0" d="M321.9,255.7c0,9.2,7.4,16.6,16.6,16.6c9.2,0,16.6-7.4,16.6-16.6c0-9.2-7.4-16.6-16.6-16.6
			C329.3,239.1,321.9,246.5,321.9,255.7z"/>
		<path class="st0" d="M384.4,255.7c0,9.2,7.4,16.6,16.6,16.6s16.6-7.4,16.6-16.6c0-9.2-7.4-16.6-16.6-16.6S384.4,246.5,384.4,255.7
			z"/>
	</g>
	<g>
		<path class="st0" d="M9.7,255.7c0,9.2,7.4,16.6,16.6,16.6c9.2,0,16.6-7.4,16.6-16.6c0-9.2-7.4-16.6-16.6-16.6
			C17.1,239.1,9.7,246.5,9.7,255.7z"/>
		<path class="st0" d="M72.1,255.7c0,9.2,7.4,16.6,16.6,16.6c9.2,0,16.6-7.4,16.6-16.6c0-9.2-7.4-16.6-16.6-16.6
			C79.5,239.1,72.1,246.5,72.1,255.7z"/>
		<path class="st0" d="M134.6,255.7c0,9.2,7.4,16.6,16.6,16.6c9.2,0,16.6-7.4,16.6-16.6c0-9.2-7.4-16.6-16.6-16.6
			C142,239.1,134.6,246.5,134.6,255.7z"/>
	</g>
</g>
</svg>
